<svg width="64" height="64" viewBox="0 0 64 64" fill="none" xmlns="http://www.w3.org/2000/svg">
<path fill-rule="evenodd" clip-rule="evenodd" d="M45.4588 1.07095C40.9904 0.33996 36.4688 -0.0180288 31.9409 0.000698271C26.4343 0.000698271 21.8944 0.484934 18.423 1.07095C14.9054 1.66314 13.1481 1.95923 11.678 3.76663C10.211 5.57403 10.2882 7.5264 10.4427 11.4311C10.9769 24.8417 13.8738 41.5956 29.6246 43.0761V53.976H25.2082C24.4945 53.9764 23.803 54.2237 23.2512 54.6758C22.6994 55.1279 22.3215 55.7569 22.1816 56.4558L21.5948 59.3735H13.4106C12.7963 59.3735 12.2071 59.6173 11.7727 60.0511C11.3383 60.4849 11.0943 61.0733 11.0943 61.6868C11.0943 62.3003 11.3383 62.8887 11.7727 63.3225C12.2071 63.7563 12.7963 64 13.4106 64H50.4712C51.0855 64 51.6747 63.7563 52.1091 63.3225C52.5434 62.8887 52.7875 62.3003 52.7875 61.6868C52.7875 61.0733 52.5434 60.4849 52.1091 60.0511C51.6747 59.6173 51.0855 59.3735 50.4712 59.3735H42.287L41.7002 56.4558C41.5603 55.7569 41.1823 55.1279 40.6306 54.6758C40.0788 54.2237 39.3873 53.9764 38.6736 53.976H34.2572V43.0761C50.0079 41.5956 52.9079 24.8448 53.4391 11.4311C53.5936 7.5264 53.6739 5.57095 52.2038 3.76663C50.7337 1.95923 48.9764 1.66314 45.4588 1.07095Z" fill="#E0862D"/>
<path fill-rule="evenodd" clip-rule="evenodd" d="M3.00083 8.96387C1.1348 8.96387 -0.278491 10.6493 0.0467434 12.4867L3.80599 33.7252C4.05961 35.1581 5.30493 36.2023 6.76007 36.2023H18.7082H38.8502C40.5071 36.2023 41.8502 34.8592 41.8502 33.2023V11.9639C41.8502 10.307 40.5071 8.96387 38.8502 8.96387H3.00083ZM6.62583 13.6201C6.02127 13.6201 5.55497 14.1524 5.63453 14.7517L7.77965 30.9107C7.84564 31.4077 8.26954 31.7791 8.77096 31.7791H15.1268H25.6978C26.2501 31.7791 26.6978 31.3314 26.6978 30.7791V14.6201C26.6978 14.0678 26.2501 13.6201 25.6978 13.6201H6.62583Z" fill="#E0862D"/>
<path fill-rule="evenodd" clip-rule="evenodd" d="M61.0026 8.96387C62.8686 8.96387 64.2819 10.6493 63.9567 12.4867L60.1974 33.7252C59.9438 35.1581 58.6985 36.2023 57.2433 36.2023H45.2952H25.1532C23.4964 36.2023 22.1532 34.8592 22.1532 33.2023V11.9639C22.1532 10.307 23.4964 8.96387 25.1532 8.96387H61.0026ZM57.3776 13.6201C57.9821 13.6201 58.4484 14.1524 58.3689 14.7517L56.2238 30.9107C56.1578 31.4077 55.7339 31.7791 55.2325 31.7791H48.8766H38.3056C37.7533 31.7791 37.3056 31.3314 37.3056 30.7791V14.6201C37.3056 14.0678 37.7533 13.6201 38.3056 13.6201H57.3776Z" fill="#E0862D"/>
<path d="M25.1416 29.4155C25.1416 28.9675 25.2536 28.4635 25.4776 27.9035C25.7016 27.3275 25.9176 26.8715 26.1256 26.5355C26.3336 26.1835 26.4536 26.0075 26.4856 26.0075C27.4136 26.5675 28.3897 26.8475 29.4137 26.8475C30.0537 26.8475 30.5657 26.7195 30.9497 26.4635C31.3497 26.2075 31.5497 25.8555 31.5497 25.4075C31.5497 24.9435 31.3657 24.6475 30.9977 24.5195C30.6457 24.3915 30.0777 24.3035 29.2937 24.2555H28.4297C28.2377 24.2555 28.0537 24.0235 27.8776 23.5595C27.7176 23.0795 27.6376 22.6155 27.6376 22.1675C27.6376 21.4155 27.8616 21.0315 28.3097 21.0155L29.0057 20.9915C29.4377 20.9915 29.8857 20.8715 30.3497 20.6315C30.8297 20.3755 31.0697 20.0555 31.0697 19.6715C31.0697 18.9995 30.4697 18.6635 29.2697 18.6635C28.3737 18.6635 27.5096 18.8395 26.6776 19.1915C25.9576 17.8955 25.5976 16.8875 25.5976 16.1675C25.5976 15.4315 26.1016 14.8795 27.1096 14.5115C28.1337 14.1435 29.4137 13.9595 30.9497 13.9595C32.4857 13.9595 33.6858 14.2795 34.5498 14.9195C35.4138 15.5595 35.8458 16.4315 35.8458 17.5355C35.8458 19.4715 35.0138 20.9595 33.3497 21.9995C35.3658 22.8155 36.3738 24.1995 36.3738 26.1515C36.3738 27.6715 35.8378 28.9035 34.7658 29.8475C33.6938 30.7755 32.1577 31.2395 30.1577 31.2395C28.8937 31.2395 27.7416 31.0635 26.7016 30.7115C25.6616 30.3435 25.1416 29.9115 25.1416 29.4155Z" fill="white"/>
</svg>
