<svg width="64" height="64" viewBox="0 0 64 64" fill="none" xmlns="http://www.w3.org/2000/svg">
<path fill-rule="evenodd" clip-rule="evenodd" d="M45.4589 1.07095C40.9905 0.33996 36.4689 -0.0180288 31.941 0.000698271C26.4344 0.000698271 21.8944 0.484934 18.4231 1.07095C14.9054 1.66314 13.1481 1.95923 11.678 3.76663C10.211 5.57403 10.2882 7.5264 10.4427 11.4311C10.9769 24.8417 13.8739 41.5956 29.6247 43.0761V53.976H25.2083C24.4946 53.9764 23.803 54.2237 23.2513 54.6758C22.6995 55.1279 22.3215 55.7569 22.1817 56.4558L21.5949 59.3735H13.4106C12.7963 59.3735 12.2071 59.6173 11.7727 60.0511C11.3383 60.4849 11.0943 61.0733 11.0943 61.6868C11.0943 62.3003 11.3383 62.8887 11.7727 63.3225C12.2071 63.7563 12.7963 64 13.4106 64H50.4714C51.0857 64 51.6749 63.7563 52.1092 63.3225C52.5436 62.8887 52.7877 62.3003 52.7877 61.6868C52.7877 61.0733 52.5436 60.4849 52.1092 60.0511C51.6749 59.6173 51.0857 59.3735 50.4714 59.3735H42.2871L41.7003 56.4558C41.5604 55.7569 41.1825 55.1279 40.6307 54.6758C40.0789 54.2237 39.3874 53.9764 38.6737 53.976H34.2573V43.0761C50.0081 41.5956 52.9081 24.8448 53.4393 11.4311C53.5937 7.5264 53.674 5.57095 52.204 3.76663C50.7339 1.95923 48.9766 1.66314 45.4589 1.07095Z" fill="#FFBF00"/>
<path fill-rule="evenodd" clip-rule="evenodd" d="M3.00083 8.96387C1.1348 8.96387 -0.278492 10.6493 0.0467438 12.4867L3.806 33.7252C4.05962 35.1581 5.30495 36.2023 6.76009 36.2023H18.7083H38.8504C40.5072 36.2023 41.8504 34.8592 41.8504 33.2023V11.9639C41.8504 10.307 40.5073 8.96387 38.8504 8.96387H3.00083ZM6.62544 13.6201C6.02088 13.6201 5.55458 14.1524 5.63414 14.7517L7.77927 30.9107C7.84526 31.4078 8.26916 31.7791 8.77058 31.7791H15.1265H25.6975C26.2498 31.7791 26.6975 31.3314 26.6975 30.7791V14.6201C26.6975 14.0678 26.2498 13.6201 25.6975 13.6201H6.62544Z" fill="#FFBF00"/>
<path fill-rule="evenodd" clip-rule="evenodd" d="M61.0016 8.96387C62.8676 8.96387 64.2809 10.6493 63.9557 12.4867L60.1964 33.7252C59.9428 35.1581 58.6975 36.2023 57.2424 36.2023H45.2942H25.152C23.4952 36.2023 22.152 34.8592 22.152 33.2023V11.9639C22.152 10.307 23.4952 8.96387 25.152 8.96387H61.0016ZM57.377 13.6201C57.9816 13.6201 58.4479 14.1524 58.3683 14.7517L56.2232 30.9107C56.1572 31.4078 55.7333 31.7791 55.2319 31.7791H48.876H38.3049C37.7526 31.7791 37.3049 31.3314 37.3049 30.7791V14.6201C37.3049 14.0678 37.7526 13.6201 38.3049 13.6201H57.377Z" fill="#FFBF00"/>
<path d="M35.2711 30.5927C35.2711 30.8647 34.4551 31.0007 32.823 31.0007C31.207 31.0007 30.399 30.8647 30.399 30.5927V18.7607L27.8069 18.7847C27.3269 18.7847 27.0869 18.0167 27.0869 16.4807C27.0869 15.9527 27.1349 15.4407 27.2309 14.9447C27.3429 14.4487 27.5269 14.2007 27.7829 14.2007H34.3591C34.6311 14.2007 34.8471 14.2647 35.0071 14.3927C35.1831 14.5047 35.2711 14.6487 35.2711 14.8247V30.5927Z" fill="white"/>
</svg>
