<svg width="64" height="64" viewBox="0 0 64 64" fill="none" xmlns="http://www.w3.org/2000/svg">
<path fill-rule="evenodd" clip-rule="evenodd" d="M45.4561 1.07095C40.9879 0.33996 36.4666 -0.0180288 31.9389 0.000698271C26.4326 0.000698271 21.8929 0.484934 18.4217 1.07095C14.9042 1.66314 13.147 1.95923 11.677 3.76663C10.2101 5.57403 10.2873 7.5264 10.4417 11.4311C10.9759 24.8417 13.8727 41.5956 29.6227 43.0761V53.976H25.2065C24.4929 53.9764 23.8014 54.2237 23.2496 54.6758C22.6979 55.1279 22.3199 55.7569 22.1801 56.4558L21.5933 59.3735H13.4095C12.7952 59.3735 12.2061 59.6173 11.7717 60.0511C11.3373 60.4849 11.0933 61.0733 11.0933 61.6868C11.0933 62.3003 11.3373 62.8887 11.7717 63.3225C12.2061 63.7563 12.7952 64 13.4095 64H50.4683C51.0826 64 51.6717 63.7563 52.1061 63.3225C52.5405 62.8887 52.7845 62.3003 52.7845 61.6868C52.7845 61.0733 52.5405 60.4849 52.1061 60.0511C51.6717 59.6173 51.0826 59.3735 50.4683 59.3735H42.2845L41.6977 56.4558C41.5578 55.7569 41.1799 55.1279 40.6281 54.6758C40.0764 54.2237 39.3849 53.9764 38.6712 53.976H34.2551V43.0761C50.0051 41.5956 52.9049 24.8448 53.4361 11.4311C53.5905 7.5264 53.6708 5.57095 52.2008 3.76663C50.7308 1.95923 48.9736 1.66314 45.4561 1.07095Z" fill="#B5B5B5"/>
<path fill-rule="evenodd" clip-rule="evenodd" d="M3.00082 8.96387C1.13481 8.96387 -0.278478 10.6493 0.046739 12.4867L3.8058 33.7252C4.05941 35.1581 5.30473 36.2023 6.75988 36.2023H18.7073H38.8482C40.5051 36.2023 41.8482 34.8592 41.8482 33.2023V11.9639C41.8482 10.307 40.5051 8.96387 38.8482 8.96387H3.00082ZM6.62602 13.6206C6.02146 13.6206 5.55516 14.1529 5.63472 14.7522L7.77974 30.9112C7.84572 31.4082 8.26962 31.7796 8.77104 31.7796H15.1265H25.697C26.2493 31.7796 26.697 31.3319 26.697 30.7796V14.6206C26.697 14.0683 26.2493 13.6206 25.697 13.6206H6.62602Z" fill="#B5B5B5"/>
<path fill-rule="evenodd" clip-rule="evenodd" d="M60.9992 8.96387C62.8652 8.96387 64.2785 10.6493 63.9533 12.4867L60.1942 33.7252C59.9406 35.1581 58.6953 36.2023 57.2401 36.2023H45.2927H25.1518C23.4949 36.2023 22.1518 34.8592 22.1518 33.2023V11.9639C22.1518 10.307 23.4949 8.96387 25.1518 8.96387H60.9992ZM57.3745 13.6206C57.979 13.6206 58.4453 14.1529 58.3658 14.7522L56.2208 30.9112C56.1548 31.4082 55.7309 31.7796 55.2294 31.7796H48.8739H38.3035C37.7512 31.7796 37.3035 31.3319 37.3035 30.7796V14.6206C37.3035 14.0683 37.7512 13.6206 38.3035 13.6206H57.3745Z" fill="#B5B5B5"/>
<path d="M35.0877 30.9991H27.12C26.56 30.9991 26.168 30.4551 25.944 29.3671C25.832 28.7751 25.776 28.3271 25.776 28.0231C25.776 27.7191 25.824 27.5191 25.92 27.4231C29.5039 23.7271 31.2959 21.2151 31.2959 19.8871C31.2959 19.4391 31.1759 19.1031 30.9359 18.8791C30.7119 18.6551 30.3439 18.5431 29.8319 18.5431C29.3359 18.5431 28.8319 18.6391 28.3199 18.8311C27.824 19.0231 27.432 19.2311 27.144 19.4551C26.52 18.7031 26.088 17.9111 25.848 17.0791C25.768 16.8071 25.728 16.5591 25.728 16.3351C25.728 16.0951 25.768 15.8711 25.848 15.6631C25.976 15.2471 26.568 14.8551 27.624 14.4871C28.6959 14.1191 29.8239 13.9351 31.0079 13.9351C34.5918 13.9351 36.3837 15.5271 36.3837 18.7111C36.3837 20.1191 35.9037 21.5511 34.9437 23.0071C33.9838 24.4471 32.8638 25.6951 31.5838 26.7511L36.4317 26.5591C36.5117 27.4071 36.5517 28.1431 36.5517 28.7671C36.5517 29.3911 36.4237 29.9191 36.1677 30.3511C35.9117 30.7831 35.5517 30.9991 35.0877 30.9991Z" fill="white"/>
</svg>
