<svg width="58" height="54" viewBox="0 0 58 54" fill="none" xmlns="http://www.w3.org/2000/svg">
<path d="M41.2724 2.63052H16.67C12.8318 2.63052 9.15077 4.15525 6.43675 6.86927C3.72272 9.5833 2.198 13.2643 2.198 17.1025V37.3633C2.198 39.2638 2.57233 41.1457 3.29961 42.9015C4.0269 44.6573 5.0929 46.2527 6.43675 47.5966C9.15077 50.3106 12.8318 51.8353 16.67 51.8353H41.2724C43.1729 51.8353 45.0548 51.461 46.8106 50.7337C48.5664 50.0064 50.1618 48.9404 51.5056 47.5966C52.8495 46.2527 53.9155 44.6573 54.6428 42.9015C55.3701 41.1457 55.7444 39.2638 55.7444 37.3633V17.1025C55.7444 15.202 55.3701 13.3202 54.6428 11.5643C53.9155 9.8085 52.8495 8.21312 51.5056 6.86927C50.1618 5.52542 48.5664 4.45943 46.8106 3.73214C45.0548 3.00485 43.1729 2.63052 41.2724 2.63052Z" stroke="#6CBDE8" stroke-width="4.3416" stroke-linecap="round" stroke-linejoin="round"/>
<path d="M2.92163 41.7049L10.8812 32.4428C11.9228 31.4084 13.2897 30.7656 14.7507 30.6232C16.2117 30.4808 17.677 30.8475 18.8987 31.6613C20.1204 32.4752 21.5857 32.8419 23.0467 32.6995C24.5078 32.5571 25.8747 31.9143 26.9162 30.8799L33.6602 24.1359C35.5979 22.1915 38.1636 20.999 40.8992 20.771C43.6348 20.543 46.3624 21.2945 48.5953 22.8913L55.8023 28.4775M17.3936 21.9362C18.0246 21.9362 18.6494 21.8119 19.2323 21.5704C19.8152 21.329 20.3449 20.9751 20.7911 20.5289C21.2372 20.0827 21.5911 19.5531 21.8326 18.9701C22.0741 18.3872 22.1983 17.7624 22.1983 17.1315C22.1983 16.5005 22.0741 15.8757 21.8326 15.2928C21.5911 14.7098 21.2372 14.1802 20.7911 13.734C20.3449 13.2879 19.8152 12.9339 19.2323 12.6925C18.6494 12.451 18.0246 12.3268 17.3936 12.3268C16.1193 12.3268 14.8973 12.833 13.9962 13.734C13.0951 14.6351 12.5889 15.8572 12.5889 17.1315C12.5889 18.4057 13.0951 19.6278 13.9962 20.5289C14.8973 21.43 16.1193 21.9362 17.3936 21.9362Z" stroke="#6CBDE8" stroke-width="4.3416" stroke-linecap="round" stroke-linejoin="round"/>
</svg>
